<svg id="Слой_1" data-name="Слой 1" xmlns="http://www.w3.org/2000/svg" viewBox="0 0 262.87 247.63"><defs><style>.cls-1,.cls-3,.cls-4{fill:none;}.cls-1{stroke:#fdfdfd;}.cls-1,.cls-2,.cls-3,.cls-4,.cls-5{stroke-miterlimit:10;}.cls-1,.cls-2,.cls-3,.cls-4{stroke-width:4px;}.cls-2,.cls-3,.cls-4,.cls-5{stroke:#fff;}.cls-4{stroke-linecap:round;}.cls-5,.cls-6{fill:#fff;}.cls-5{stroke-width:2px;}</style></defs><title>vedro</title><rect class="cls-1" x="16.79" y="5.38" width="196.77" height="185.09" rx="16.09"/><path class="cls-2" d="M350,342.07a7.92,7.92,0,0,1-7.93,7.93H225.54v-6.08h-8.41V350h-9.78v-6.08h-8.41V350h-67a7.93,7.93,0,0,1,0-15.86H342.07A7.93,7.93,0,0,1,350,342.07Z" transform="translate(-121.99 -332.14)"/><circle class="cls-3" cx="166.64" cy="75.07" r="5.78"/><path class="cls-4" d="M288.63,413s-.07,66.9,54.18,61.07" transform="translate(-121.99 -332.14)"/><line class="cls-4" x1="34.49" y1="49.39" x2="34.49" y2="137.78"/><path class="cls-4" d="M156.48,493.91s-1.2,14.31,11.17,14.16" transform="translate(-121.99 -332.14)"/><rect class="cls-5" x="82.42" y="14.99" width="8.74" height="8.08"/><rect class="cls-5" x="101.34" y="14.99" width="8.74" height="8.08"/><path class="cls-6" d="M204.41,334.14V437.22c0,3.59-2.27,6.5-5.09,6.5a4.62,4.62,0,0,1-3.6-1.9,7.6,7.6,0,0,1-1.49-4.6V334.14Z" transform="translate(-121.99 -332.14)"/><path class="cls-6" d="M223.33,334.14v77.63c0,3.59-2.28,6.5-5.09,6.5a4.64,4.64,0,0,1-3.6-1.9,7.55,7.55,0,0,1-1.48-4.6V334.14Z" transform="translate(-121.99 -332.14)"/><path class="cls-6" d="M242.25,334.14v91.21c0,3.58-2.28,6.49-5.09,6.49a4.61,4.61,0,0,1-3.6-1.9,7.48,7.48,0,0,1-1.49-4.59V334.14Z" transform="translate(-121.99 -332.14)"/><rect class="cls-6" x="72.24" y="2" width="48.01" height="12.99"/><path class="cls-5" d="M286.82,549s21-7.72,39.15-3,31-.67,39.63.74,31.51,6.55,7.88,14.7-62.46,2.14-73.77,0C262.79,554.44,286.82,549,286.82,549Z" transform="translate(-121.99 -332.14)"/><path class="cls-5" d="M242.57,576.56c-1.57-2.46,2.76-6.37,10.7-4.8s4.45-1.43,11.12,2.27S245.49,581.16,242.57,576.56Z" transform="translate(-121.99 -332.14)"/></svg>