<?xml version="1.0" encoding="utf-8"?>
<!-- Generator: Adobe Illustrator 24.0.0, SVG Export Plug-In . SVG Version: 6.00 Build 0)  -->
<svg version="1.1" id="Слой_1" xmlns="http://www.w3.org/2000/svg" xmlns:xlink="http://www.w3.org/1999/xlink" x="0px" y="0px"
	 viewBox="0 0 700 700" style="enable-background:new 0 0 700 700;" xml:space="preserve">
<style type="text/css">
	.st0{fill:none;stroke:#FDFDFD;stroke-width:4;stroke-miterlimit:10;}
	.st1{fill:#010202;stroke:#FFFFFF;stroke-width:4;stroke-miterlimit:10;}
	.st2{fill:none;stroke:#FFFFFF;stroke-width:4;stroke-miterlimit:10;}
	.st3{fill:none;stroke:#FFFFFF;stroke-width:4;stroke-linecap:round;stroke-miterlimit:10;}
	.st4{fill:#FFFFFF;stroke:#FFFFFF;stroke-width:2;stroke-miterlimit:10;}
	.st5{fill:#FFFFFF;}
	.st6{fill:none;stroke:#FFFFFF;stroke-width:2;stroke-miterlimit:10;}
</style>
<g>
	<path class="st0" d="M319.46,522.61H154.87c-8.89,0-16.09-7.2-16.09-16.09V353.61c0-8.89,7.2-16.09,16.09-16.09h164.58
		c8.89,0,16.09,7.2,16.09,16.09v152.91C335.55,515.41,328.34,522.61,319.46,522.61z"/>
	<path class="st1" d="M350,342.07c0,2.19-0.89,4.17-2.32,5.61c-1.44,1.43-3.42,2.32-5.61,2.32H225.54v-6.08h-8.41V350h-9.78v-6.08
		h-8.41V350h-67.03c-4.37,0-7.92-3.55-7.92-7.93c0-2.19,0.89-4.17,2.32-5.61c1.43-1.43,3.41-2.32,5.6-2.32h210.16
		C346.45,334.14,350,337.69,350,342.07z"/>
	<circle class="st2" cx="288.63" cy="407.21" r="5.78"/>
	<path class="st3" d="M288.63,413c0,0-0.08,66.91,54.18,61.08"/>
	<line class="st3" x1="156.48" y1="381.53" x2="156.48" y2="469.92"/>
	<path class="st3" d="M156.48,493.91c0,0-1.2,14.31,11.17,14.16"/>
	<g>
		<rect x="204.41" y="347.13" class="st4" width="8.74" height="8.08"/>
		<rect x="223.33" y="347.13" class="st4" width="8.74" height="8.08"/>
		<g>
			<path class="st5" d="M204.41,334.14v103.08c0,3.59-2.28,6.49-5.09,6.49c-1.4,0-2.67-0.73-3.6-1.9c-0.91-1.18-1.49-2.8-1.49-4.6
				V334.14H204.41z"/>
			<path class="st5" d="M223.33,334.14v77.63c0,3.59-2.28,6.49-5.08,6.49c-1.4,0-2.67-0.73-3.6-1.9c-0.91-1.18-1.49-2.8-1.49-4.6
				v-77.63H223.33z"/>
			<path class="st5" d="M242.25,334.14v91.21c0,3.59-2.28,6.49-5.08,6.49c-1.41,0-2.68-0.73-3.61-1.9c-0.91-1.18-1.49-2.8-1.49-4.6
				v-91.21H242.25z"/>
			<rect x="194.23" y="334.14" class="st5" width="48.01" height="12.99"/>
		</g>
	</g>
	<g>
		<path class="st2" d="M423.36,333.97c-1.38-5.13-0.75-11.53,2.59-15.81c4.31-5.53,12.1-4.35,18.24-4.28
			c10.52,0.11,21.03,0.17,31.55,0.29c7.74,0.09,15.48,0.31,23.23,0.21c7.4-0.09,18.71,1.27,24.04-5.31
			c1.83-2.26,2.44-5.28,2.61-8.18c0.41-7.1,0.27-14.26-0.02-21.36c-0.23-5.72,1.18-12.91-1.16-18.25
			c-3.77-8.61-14.73-8.38-22.52-7.38"/>
		<path class="st4" d="M492.44,281.8H375.7c-11.18,0-20.25-9.07-20.25-20.25v-9.9c0-11.18,9.07-20.25,20.25-20.25h116.75
			c11.18,0,20.25,9.07,20.25,20.25v9.9C512.69,272.74,503.63,281.8,492.44,281.8z"/>
		<path class="st2" d="M426,384.54h-5.4c-4.46,0-8.07-3.61-8.07-8.07v-34.42c0-4.46,3.61-8.07,8.07-8.07h5.4
			c4.46,0,8.07,3.61,8.07,8.07v34.42C434.07,380.93,430.46,384.54,426,384.54z"/>
		<circle class="st6" cx="423.31" cy="373.44" r="4.49"/>
	</g>
	<path class="st4" d="M265,559.52c0,0,21-7.72,39.15-3c18.15,4.72,31.04-0.67,39.63,0.74c8.59,1.41,31.51,6.56,7.88,14.71
		s-62.46,2.13-73.77,0C240.97,565,265,559.52,265,559.52z"/>
	<path class="st4" d="M212.02,577.58c-1.56-2.46,2.76-6.37,10.71-4.8c7.94,1.57,4.45-1.43,11.12,2.27
		C240.51,578.76,214.94,582.18,212.02,577.58z"/>
</g>
</svg>
