<svg xmlns="http://www.w3.org/2000/svg" height="384" width="384" style=""><rect id="backgroundrect" width="100%" height="100%" x="0" y="0" fill="none" stroke="none"/><g class="currentLayer" style=""><title>Layer 1</title><path d="m368.5263156890869,206.24691231216812 h-352 c-8.832031,0 -16,-7.167969 -16,-16 s7.167969,-16 16,-16 h352 c8.832031,0 16,7.167969 16,16 s-7.167969,16 -16,16 zm0,0 " id="svg_1" class="" fill="#ffffff" fill-opacity="1"/><path d="m368.5263156890869,83.57894331216812 h-352 c-8.832031,0 -16,-7.167969 -16,-16 s7.167969,-16 16,-16 h352 c8.832031,0 16,7.167969 16,16 s-7.167969,16 -16,16 zm0,0 " id="svg_2" class="" fill="#ffffff" fill-opacity="1"/><path d="m368.5263156890869,328.9109743121681 h-352 c-8.832031,0 -16,-7.167969 -16,-16 s7.167969,-16 16,-16 h352 c8.832031,0 16,7.167969 16,16 s-7.167969,16 -16,16 zm0,0 " id="svg_3" class="" fill="#ffffff" fill-opacity="1"/></g></svg>