<svg id="Слой_1" data-name="Слой 1" xmlns="http://www.w3.org/2000/svg" viewBox="0 0 173.43 156.14"><defs><style>.cls-1,.cls-3{fill:none;}.cls-1,.cls-2,.cls-3{stroke:#fff;stroke-miterlimit:10;}.cls-1{stroke-width:4px;}.cls-2{fill:#fff;}.cls-2,.cls-3{stroke-width:2px;}</style></defs><title>roller</title><path class="cls-1" d="M418.81,338.59c-1.38-5.13-.75-11.53,2.59-15.81,4.32-5.53,12.11-4.35,18.24-4.28,10.52.11,21,.17,31.55.28,7.74.09,15.48.31,23.23.22,7.4-.09,18.71,1.27,24-5.31,1.83-2.26,2.44-5.28,2.61-8.19a211.17,211.17,0,0,0,0-21.35c-.23-5.72,1.18-12.92-1.16-18.25-3.77-8.62-14.73-8.38-22.52-7.38" transform="translate(-349.91 -235.02)"/><rect class="cls-2" x="1" y="1" width="157.24" height="50.4" rx="20.25"/><rect class="cls-1" x="58.09" y="103.58" width="21.53" height="50.55" rx="8.07"/><circle class="cls-3" cx="68.86" cy="143.04" r="4.49"/></svg>